<?xml version="1.0" standalone="no"?><!DOCTYPE svg PUBLIC "-//W3C//DTD SVG 1.1//EN" "http://www.w3.org/Graphics/SVG/1.1/DTD/svg11.dtd"><svg t="1739883219484" class="icon" viewBox="0 0 1024 1024" version="1.1" xmlns="http://www.w3.org/2000/svg" p-id="5979" xmlns:xlink="http://www.w3.org/1999/xlink" width="32" height="32"><path d="M85.333333 853.333333c0 46.933333 38.4 85.333333 85.333334 85.333334h110.933333L85.333333 742.4V853.333333zM921.6 238.933333l-136.533333-136.533333c-34.133333-34.133333-85.333333-34.133333-119.466667 0l-8.533333 8.533333c-17.066667 17.066667-17.066667 42.666667 0 59.733334L853.333333 366.933333c17.066667 17.066667 42.666667 17.066667 59.733334 0l8.533333-8.533333c34.133333-34.133333 34.133333-85.333333 0-119.466667zM597.333333 230.4c-17.066667-17.066667-42.666667-17.066667-59.733333 0l-388.266667 388.266667C128 640 128 665.6 145.066667 682.666667L341.333333 878.933333c17.066667 17.066667 42.666667 17.066667 59.733334 0l388.266666-388.266666c17.066667-17.066667 17.066667-42.666667 0-59.733334L597.333333 230.4z" p-id="5980" fill="#2c2c2c"></path></svg>